<svg width="130" height="18" viewBox="0 0 130 18" fill="none" xmlns="http://www.w3.org/2000/svg">
<path d="M14.472 18L9.432 12.984L11.448 10.968L16.464 15.984L14.472 18ZM8.376 18C6.648 18 5.156 17.624 3.9 16.872C2.652 16.12 1.688 15.068 1.008 13.716C0.335999 12.364 -1.19209e-06 10.792 -1.19209e-06 9.00001C-1.19209e-06 7.20801 0.335999 5.63601 1.008 4.28401C1.688 2.93201 2.652 1.88001 3.9 1.12801C5.156 0.376014 6.648 1.43051e-05 8.376 1.43051e-05C10.104 1.43051e-05 11.592 0.376014 12.84 1.12801C14.096 1.88001 15.06 2.93201 15.732 4.28401C16.412 5.63601 16.752 7.20801 16.752 9.00001C16.752 10.792 16.412 12.364 15.732 13.716C15.06 15.068 14.096 16.12 12.84 16.872C11.592 17.624 10.104 18 8.376 18ZM8.376 14.928C9.472 14.944 10.384 14.708 11.112 14.22C11.84 13.732 12.384 13.04 12.744 12.144C13.112 11.248 13.296 10.2 13.296 9.00001C13.296 7.80001 13.112 6.76001 12.744 5.88001C12.384 5.00001 11.84 4.31601 11.112 3.82801C10.384 3.34001 9.472 3.08801 8.376 3.07201C7.28 3.05601 6.368 3.29201 5.64 3.78001C4.912 4.26801 4.364 4.96001 3.996 5.85601C3.636 6.75201 3.456 7.80001 3.456 9.00001C3.456 10.2 3.636 11.24 3.996 12.12C4.364 13 4.912 13.684 5.64 14.172C6.368 14.66 7.28 14.912 8.376 14.928ZM26.1795 18C24.7875 18 23.5635 17.72 22.5075 17.16C21.4515 16.592 20.6275 15.796 20.0355 14.772C19.4435 13.748 19.1475 12.544 19.1475 11.16V0.384014L22.4595 0.360014V11.136C22.4595 11.704 22.5555 12.22 22.7475 12.684C22.9395 13.148 23.2035 13.548 23.5395 13.884C23.8835 14.22 24.2795 14.48 24.7275 14.664C25.1835 14.84 25.6675 14.928 26.1795 14.928C26.7075 14.928 27.1955 14.836 27.6435 14.652C28.0995 14.468 28.4955 14.208 28.8315 13.872C29.1675 13.536 29.4275 13.136 29.6115 12.672C29.8035 12.208 29.8995 11.696 29.8995 11.136V0.360014H33.2115V11.16C33.2115 12.544 32.9155 13.748 32.3235 14.772C31.7315 15.796 30.9075 16.592 29.8515 17.16C28.7955 17.72 27.5715 18 26.1795 18ZM36.8016 17.64V0.360014H40.0656V17.64H36.8016ZM51.0791 18C49.3511 18 47.8591 17.624 46.6031 16.872C45.3551 16.12 44.3911 15.068 43.7111 13.716C43.0391 12.364 42.7031 10.792 42.7031 9.00001C42.7031 7.20801 43.0391 5.63601 43.7111 4.28401C44.3911 2.93201 45.3551 1.88001 46.6031 1.12801C47.8591 0.376014 49.3511 1.43051e-05 51.0791 1.43051e-05C53.0631 1.43051e-05 54.7271 0.492014 56.0711 1.47601C57.4231 2.46001 58.3751 3.79201 58.9271 5.47201L55.6391 6.38401C55.3191 5.33601 54.7791 4.52401 54.0191 3.94801C53.2591 3.36401 52.2791 3.07201 51.0791 3.07201C49.9831 3.07201 49.0671 3.31601 48.3311 3.80401C47.6031 4.29201 47.0551 4.98001 46.6871 5.86801C46.3191 6.75601 46.1351 7.80001 46.1351 9.00001C46.1351 10.2 46.3191 11.244 46.6871 12.132C47.0551 13.02 47.6031 13.708 48.3311 14.196C49.0671 14.684 49.9831 14.928 51.0791 14.928C52.2791 14.928 53.2591 14.636 54.0191 14.052C54.7791 13.468 55.3191 12.656 55.6391 11.616L58.9271 12.528C58.3751 14.208 57.4231 15.54 56.0711 16.524C54.7271 17.508 53.0631 18 51.0791 18ZM61.5694 17.64V0.360014H64.8334V8.32801L71.4094 0.360014H75.3934L68.1694 8.88001L75.8494 17.64H71.7214L64.8334 9.76801V17.64H61.5694ZM77.7703 17.64V0.360014H81.0343V14.592H88.4743V17.64H77.7703ZM90.7547 17.64V0.360014H94.0187V17.64H90.7547ZM97.6162 17.64V0.360014H100.928L108.44 11.88V0.360014H111.752V17.64H108.44L100.928 6.12001V17.64H97.6162ZM115.101 17.64V0.360014H118.365V8.32801L124.941 0.360014H128.925L121.701 8.88001L129.381 17.64H125.253L118.365 9.76801V17.64H115.101Z" fill="black"/>
</svg>
