<svg width="20" height="20" viewBox="0 0 20 20" fill="none" xmlns="http://www.w3.org/2000/svg">
<path d="M0 4.5C0 3.30653 0.474106 2.16193 1.31802 1.31802C2.16193 0.474106 3.30653 0 4.5 0H9.508C10.6712 0.00016408 11.7892 0.450771 12.6274 1.2573C13.4657 2.06384 13.959 3.16363 14.004 4.326V9.68C13.9693 10.5811 13.6648 11.4511 13.1299 12.1771C12.595 12.9031 11.8544 13.4518 11.004 13.752L11.008 4.5C11.008 4.10218 10.85 3.72064 10.5687 3.43934C10.2874 3.15804 9.90582 3 9.508 3H4.5C4.10218 3 3.72064 3.15804 3.43934 3.43934C3.15804 3.72064 3 4.10218 3 4.5V9.508C3 10.162 3.42 10.718 4.004 10.924V13.98C2.90326 13.8579 1.88618 13.3342 1.14743 12.5091C0.408683 11.684 0.000143079 10.6155 0 9.508V4.5ZM6.004 15.504C6.004 16.6975 6.47811 17.8421 7.32202 18.686C8.16593 19.5299 9.31053 20.004 10.504 20.004H15.504C16.6975 20.004 17.8421 19.5299 18.686 18.686C19.5299 17.8421 20.004 16.6975 20.004 15.504V10.504C20.004 9.39712 19.596 8.32909 18.8581 7.50408C18.1201 6.67908 17.104 6.15499 16.004 6.032V9.09C16.586 9.296 17.004 9.85 17.004 10.504V15.504C17.004 15.9018 16.846 16.2834 16.5647 16.5647C16.2834 16.846 15.9018 17.004 15.504 17.004H10.504C10.1062 17.004 9.72464 16.846 9.44334 16.5647C9.16203 16.2834 9.004 15.9018 9.004 15.504V6.26C8.12643 6.57027 7.36666 7.14504 6.82937 7.90512C6.29209 8.6652 6.00372 9.57319 6.004 10.504V15.504Z" fill="black"/>
</svg>
